<svg version="1.1" id="Layer_1" xmlns="http://www.w3.org/2000/svg" xmlns:xlink="http://www.w3.org/1999/xlink" x="0px" y="0px"
	 width="100%" viewBox="0 0 450 350" enable-background="new 0 0 450 350" xml:space="preserve">
<path fill="none" opacity="1.000000" stroke="none" 
	d="
M275.000000,351.000000 
	C183.361816,351.000000 92.223633,351.000000 1.042727,351.000000 
	C1.042727,234.398285 1.042727,117.796547 1.042727,1.097406 
	C150.888138,1.097406 300.776367,1.097406 450.832275,1.097406 
	C450.832275,117.666473 450.832275,234.333221 450.832275,351.000000 
	C392.463287,351.000000 333.981628,351.000000 275.000000,351.000000 
M122.640175,313.972809 
	C133.354431,320.096985 143.907425,326.527130 154.818634,332.277588 
	C173.827789,342.295837 194.636032,346.199310 215.726440,347.746429 
	C226.611740,348.544952 237.713806,346.911041 248.681000,345.953125 
	C267.157166,344.339355 284.466370,338.455627 301.044556,330.429413 
	C324.896362,318.881683 344.879883,302.501831 361.043823,281.474640 
	C378.214417,259.137939 389.688751,234.331039 394.048553,206.349091 
	C396.194794,192.574280 397.379608,178.918594 396.275726,164.840179 
	C394.958923,148.046616 391.621307,131.939835 386.012421,116.157867 
	C378.949249,96.284042 368.048126,78.629753 354.244537,62.902378 
	C337.610229,43.949818 317.346680,29.503462 294.374298,19.242041 
	C274.275482,10.264202 252.920212,5.845867 230.917191,5.084054 
	C224.187988,4.851068 217.411423,5.517758 210.676956,6.037198 
	C204.007812,6.551598 197.068115,6.413256 190.770493,8.304270 
	C177.015808,12.434452 163.156219,16.714592 150.132446,22.668140 
	C127.935478,32.815037 109.273125,47.980949 93.632347,66.821106 
	C81.581383,81.337128 72.026337,97.243942 65.490082,114.978546 
	C56.605145,139.085739 52.674973,163.748810 54.816929,189.542816 
	C56.168087,205.813782 59.444248,221.433868 64.975052,236.717178 
	C72.672745,257.988251 84.513969,276.731506 99.860390,293.170624 
	C106.691292,300.487915 114.610588,306.789154 122.640175,313.972809 
z"/>
<path fill="#FDFDFD" opacity="1.000000" stroke="none" 
	d="
M122.338028,313.762177 
	C114.610588,306.789154 106.691292,300.487915 99.860390,293.170624 
	C84.513969,276.731506 72.672745,257.988251 64.975052,236.717178 
	C59.444248,221.433868 56.168087,205.813782 54.816929,189.542816 
	C52.674973,163.748810 56.605145,139.085739 65.490082,114.978546 
	C72.026337,97.243942 81.581383,81.337128 93.632347,66.821106 
	C109.273125,47.980949 127.935478,32.815037 150.132446,22.668140 
	C163.156219,16.714592 177.015808,12.434452 190.770493,8.304270 
	C197.068115,6.413256 204.007812,6.551598 210.676956,6.037198 
	C217.411423,5.517758 224.187988,4.851068 230.917191,5.084054 
	C252.920212,5.845867 274.275482,10.264202 294.374298,19.242041 
	C317.346680,29.503462 337.610229,43.949818 354.244537,62.902378 
	C368.048126,78.629753 378.949249,96.284042 386.012421,116.157867 
	C391.621307,131.939835 394.958923,148.046616 396.275726,164.840179 
	C397.379608,178.918594 396.194794,192.574280 394.048553,206.349091 
	C389.688751,234.331039 378.214417,259.137939 361.043823,281.474640 
	C344.879883,302.501831 324.896362,318.881683 301.044556,330.429413 
	C284.466370,338.455627 267.157166,344.339355 248.681000,345.953125 
	C237.713806,346.911041 226.611740,348.544952 215.726440,347.746429 
	C194.636032,346.199310 173.827789,342.295837 154.818634,332.277588 
	C143.907425,326.527130 133.354431,320.096985 122.338028,313.762177 
M330.318359,291.828583 
	C369.828400,254.677185 386.499817,208.991959 379.790466,155.343613 
	C374.667419,114.379402 355.125366,80.681381 323.038513,54.959877 
	C285.445679,24.824677 242.210098,14.777217 195.012680,23.586096 
	C164.883911,29.209301 138.677200,43.262264 116.748093,64.821793 
	C89.488350,91.622108 73.618340,124.184967 70.266541,162.192535 
	C66.690620,202.741608 77.081253,239.796082 102.344551,272.012573 
	C130.144440,307.463837 166.875168,327.847565 211.645447,331.751678 
	C256.339935,335.649170 296.039459,322.329529 330.318359,291.828583 
z"/>
<path fill="#010101" opacity="1.000000" stroke="none" 
	d="
M330.041962,292.050262 
	C296.039459,322.329529 256.339935,335.649170 211.645447,331.751678 
	C166.875168,327.847565 130.144440,307.463837 102.344551,272.012573 
	C77.081253,239.796082 66.690620,202.741608 70.266541,162.192535 
	C73.618340,124.184967 89.488350,91.622108 116.748093,64.821793 
	C138.677200,43.262264 164.883911,29.209301 195.012680,23.586096 
	C242.210098,14.777217 285.445679,24.824677 323.038513,54.959877 
	C355.125366,80.681381 374.667419,114.379402 379.790466,155.343613 
	C386.499817,208.991959 369.828400,254.677185 330.041962,292.050262 
M209.399368,111.899605 
	C204.284195,121.548897 198.340012,130.862930 194.267258,140.933792 
	C189.363571,153.059311 186.262192,165.901199 181.982452,178.295486 
	C178.483856,188.427521 178.207184,188.635025 167.517578,188.002258 
	C158.857910,187.489670 151.922134,189.447342 147.059372,197.296799 
	C143.948181,202.318893 144.604279,207.826767 149.608963,210.946564 
	C157.804932,216.055740 169.222153,214.648026 176.905518,206.989639 
	C180.252945,203.653137 182.370544,203.882980 185.485474,207.096497 
	C194.875473,216.783554 204.724579,226.031158 213.984634,235.837326 
	C227.599640,250.255325 243.536057,257.458221 263.840668,255.730804 
	C280.497955,254.313705 294.746796,244.557693 299.786469,228.746826 
	C301.553833,223.202072 297.806824,217.218933 292.060059,216.539856 
	C288.461456,216.114655 286.134460,218.350784 285.384613,221.306183 
	C284.889923,223.255768 285.496307,226.256943 286.800476,227.740463 
	C290.200745,231.608444 291.232422,235.095688 288.445618,239.147934 
	C285.110870,243.996902 280.450714,247.545517 274.501373,247.828400 
	C260.012390,248.517288 246.067062,246.193024 234.845657,236.137024 
	C219.124573,222.048691 203.811493,207.505035 188.160904,193.005173 
	C196.311752,182.375336 199.933884,170.844772 203.306381,159.147156 
	C205.557571,151.338806 208.130676,143.592209 211.094299,136.027405 
	C215.740005,124.168930 221.584457,113.043571 232.190674,105.147964 
	C239.101288,100.003494 247.997787,100.164902 254.314087,105.904556 
	C257.254028,108.576096 257.725861,116.755028 255.133209,120.103683 
	C252.075424,124.053101 247.563568,124.528664 242.765076,121.432442 
	C240.464874,119.948242 238.268875,117.590996 235.418884,120.600761 
	C233.046631,123.105995 231.988907,129.502457 233.644989,131.743439 
	C238.712952,138.601349 253.942184,138.940552 259.037476,131.963181 
	C268.458191,119.062660 264.979431,103.361740 250.319611,97.952499 
	C246.458862,96.527939 241.779144,96.510567 237.589859,96.946365 
	C226.566727,98.093048 216.444122,101.443817 209.399368,111.899605 
M329.710846,97.286064 
	C327.460449,97.614883 325.210083,97.943703 322.566681,98.329948 
	C323.136871,102.566490 323.637878,106.288864 324.136658,109.994659 
	C338.898682,108.731567 343.445679,112.915894 343.582550,127.785416 
	C343.628510,132.774490 343.243652,137.766006 343.147980,142.758194 
	C342.894897,155.964035 343.785858,157.256622 355.815125,161.610886 
	C355.893677,161.639313 355.882782,161.914780 356.059875,162.833542 
	C355.108795,163.159286 353.979767,163.397263 352.996155,163.912674 
	C350.685577,165.123398 347.570068,165.932449 346.379456,167.881119 
	C344.574432,170.835388 343.421509,174.582626 343.241333,178.057755 
	C342.785675,186.845612 343.563324,195.713791 342.842468,204.467056 
	C342.070007,213.846634 336.096466,217.781967 326.954468,216.144241 
	C326.161682,216.002213 325.353363,215.947311 324.173676,215.806885 
	C323.638275,219.809830 323.126007,223.639648 322.624329,227.390457 
	C343.165649,232.121597 355.812561,223.654007 358.185791,203.779526 
	C358.970490,197.207947 358.707336,190.497543 358.717621,183.850281 
	C358.734863,172.690002 361.019043,169.907837 372.042419,168.156448 
	C372.954742,168.011490 373.879272,167.943253 374.737183,167.846268 
	C374.737183,163.975922 374.737183,160.543457 374.737183,157.058517 
	C373.087158,156.696732 371.625946,156.403748 370.178314,156.054474 
	C361.055084,153.853256 358.717407,150.796143 358.715607,141.513535 
	C358.714417,135.195297 358.920441,128.837189 358.314056,122.566498 
	C356.637177,105.225166 347.949371,97.458519 329.710846,97.286064 
M111.852226,211.477066 
	C110.877838,207.831909 109.245644,204.219116 109.064323,200.534927 
	C108.672226,192.568054 109.140335,184.563095 109.036659,176.576553 
	C108.942719,169.339813 105.884514,165.708893 98.868668,163.793198 
	C97.921646,163.534607 97.066978,162.937775 95.099937,161.972870 
	C96.951889,161.392624 97.662148,161.119812 98.396042,160.947906 
	C106.057076,159.153412 108.950356,155.617752 109.066139,147.656021 
	C109.124199,143.663116 108.848007,139.662613 108.981270,135.674179 
	C109.174797,129.882019 108.975899,123.973846 110.089661,118.341629 
	C111.448494,111.470222 117.087242,108.381218 124.018661,109.531868 
	C125.279007,109.741096 126.544250,109.920761 128.161057,110.168236 
	C128.718964,106.132057 129.230362,102.432266 129.732986,98.796074 
	C109.550407,93.004097 95.022850,103.206245 93.916382,123.659683 
	C93.629097,128.970139 93.744476,134.305252 93.762482,139.628738 
	C93.801552,151.176498 91.590988,153.940659 80.097580,156.526917 
	C79.304085,156.705475 78.510666,156.884384 77.567192,157.096924 
	C77.567192,160.696533 77.567192,164.134872 77.567192,167.757706 
	C78.814796,167.931656 79.947083,168.047409 81.063171,168.251709 
	C91.375290,170.139526 93.791000,173.137421 93.778694,183.625977 
	C93.770500,190.612595 93.516472,197.636612 94.119843,204.578934 
	C95.737106,223.186813 112.297256,233.562119 129.776154,226.983093 
	C129.219467,223.331848 128.655502,219.632889 128.096039,215.963394 
	C117.699295,217.130829 116.720657,216.881454 111.852226,211.477066 
z"/>
<path fill="#EDE8E8" opacity="1.000000" stroke="none" 
	d="
M209.625610,111.621246 
	C216.444122,101.443817 226.566727,98.093048 237.589859,96.946365 
	C241.779144,96.510567 246.458862,96.527939 250.319611,97.952499 
	C264.979431,103.361740 268.458191,119.062660 259.037476,131.963181 
	C253.942184,138.940552 238.712952,138.601349 233.644989,131.743439 
	C231.988907,129.502457 233.046631,123.105995 235.418884,120.600761 
	C238.268875,117.590996 240.464874,119.948242 242.765076,121.432442 
	C247.563568,124.528664 252.075424,124.053101 255.133209,120.103683 
	C257.725861,116.755028 257.254028,108.576096 254.314087,105.904556 
	C247.997787,100.164902 239.101288,100.003494 232.190674,105.147964 
	C221.584457,113.043571 215.740005,124.168930 211.094299,136.027405 
	C208.130676,143.592209 205.557571,151.338806 203.306381,159.147156 
	C199.933884,170.844772 196.311752,182.375336 188.160904,193.005173 
	C203.811493,207.505035 219.124573,222.048691 234.845657,236.137024 
	C246.067062,246.193024 260.012390,248.517288 274.501373,247.828400 
	C280.450714,247.545517 285.110870,243.996902 288.445618,239.147934 
	C291.232422,235.095688 290.200745,231.608444 286.800476,227.740463 
	C285.496307,226.256943 284.889923,223.255768 285.384613,221.306183 
	C286.134460,218.350784 288.461456,216.114655 292.060059,216.539856 
	C297.806824,217.218933 301.553833,223.202072 299.786469,228.746826 
	C294.746796,244.557693 280.497955,254.313705 263.840668,255.730804 
	C243.536057,257.458221 227.599640,250.255325 213.984634,235.837326 
	C204.724579,226.031158 194.875473,216.783554 185.485474,207.096497 
	C182.370544,203.882980 180.252945,203.653137 176.905518,206.989639 
	C169.222153,214.648026 157.804932,216.055740 149.608963,210.946564 
	C144.604279,207.826767 143.948181,202.318893 147.059372,197.296799 
	C151.922134,189.447342 158.857910,187.489670 167.517578,188.002258 
	C178.207184,188.635025 178.483856,188.427521 181.982452,178.295486 
	C186.262192,165.901199 189.363571,153.059311 194.267258,140.933792 
	C198.340012,130.862930 204.284195,121.548897 209.625610,111.621246 
M154.673691,208.644547 
	C163.130920,207.828430 170.139603,204.783676 173.921112,196.518036 
	C167.577423,192.310944 157.023773,193.920441 151.229095,200.022049 
	C150.040802,201.273270 148.820068,203.750488 149.305298,205.012329 
	C149.895920,206.548248 152.275604,207.396194 154.673691,208.644547 
z"/>
<path fill="#EDE8E8" opacity="1.000000" stroke="none" 
	d="
M330.156555,97.259842 
	C347.949371,97.458519 356.637177,105.225166 358.314056,122.566498 
	C358.920441,128.837189 358.714417,135.195297 358.715607,141.513535 
	C358.717407,150.796143 361.055084,153.853256 370.178314,156.054474 
	C371.625946,156.403748 373.087158,156.696732 374.737183,157.058517 
	C374.737183,160.543457 374.737183,163.975922 374.737183,167.846268 
	C373.879272,167.943253 372.954742,168.011490 372.042419,168.156448 
	C361.019043,169.907837 358.734863,172.690002 358.717621,183.850281 
	C358.707336,190.497543 358.970490,197.207947 358.185791,203.779526 
	C355.812561,223.654007 343.165649,232.121597 322.624329,227.390457 
	C323.126007,223.639648 323.638275,219.809830 324.173676,215.806885 
	C325.353363,215.947311 326.161682,216.002213 326.954468,216.144241 
	C336.096466,217.781967 342.070007,213.846634 342.842468,204.467056 
	C343.563324,195.713791 342.785675,186.845612 343.241333,178.057755 
	C343.421509,174.582626 344.574432,170.835388 346.379456,167.881119 
	C347.570068,165.932449 350.685577,165.123398 352.996155,163.912674 
	C353.979767,163.397263 355.108795,163.159286 356.059875,162.833542 
	C355.882782,161.914780 355.893677,161.639313 355.815125,161.610886 
	C343.785858,157.256622 342.894897,155.964035 343.147980,142.758194 
	C343.243652,137.766006 343.628510,132.774490 343.582550,127.785416 
	C343.445679,112.915894 338.898682,108.731567 324.136658,109.994659 
	C323.637878,106.288864 323.136871,102.566490 322.566681,98.329948 
	C325.210083,97.943703 327.460449,97.614883 330.156555,97.259842 
z"/>
<path fill="#EEEAEA" opacity="1.000000" stroke="none" 
	d="
M112.055054,211.800522 
	C116.720657,216.881454 117.699295,217.130829 128.096039,215.963394 
	C128.655502,219.632889 129.219467,223.331848 129.776154,226.983093 
	C112.297256,233.562119 95.737106,223.186813 94.119843,204.578934 
	C93.516472,197.636612 93.770500,190.612595 93.778694,183.625977 
	C93.791000,173.137421 91.375290,170.139526 81.063171,168.251709 
	C79.947083,168.047409 78.814796,167.931656 77.567192,167.757706 
	C77.567192,164.134872 77.567192,160.696533 77.567192,157.096924 
	C78.510666,156.884384 79.304085,156.705475 80.097580,156.526917 
	C91.590988,153.940659 93.801552,151.176498 93.762482,139.628738 
	C93.744476,134.305252 93.629097,128.970139 93.916382,123.659683 
	C95.022850,103.206245 109.550407,93.004097 129.732986,98.796074 
	C129.230362,102.432266 128.718964,106.132057 128.161057,110.168236 
	C126.544250,109.920761 125.279007,109.741096 124.018661,109.531868 
	C117.087242,108.381218 111.448494,111.470222 110.089661,118.341629 
	C108.975899,123.973846 109.174797,129.882019 108.981270,135.674179 
	C108.848007,139.662613 109.124199,143.663116 109.066139,147.656021 
	C108.950356,155.617752 106.057076,159.153412 98.396042,160.947906 
	C97.662148,161.119812 96.951889,161.392624 95.099937,161.972870 
	C97.066978,162.937775 97.921646,163.534607 98.868668,163.793198 
	C105.884514,165.708893 108.942719,169.339813 109.036659,176.576553 
	C109.140335,184.563095 108.672226,192.568054 109.064323,200.534927 
	C109.245644,204.219116 110.877838,207.831909 112.055054,211.800522 
z"/>
<path fill="#080808" opacity="1.000000" stroke="none" 
	d="
M154.277557,208.593140 
	C152.275604,207.396194 149.895920,206.548248 149.305298,205.012329 
	C148.820068,203.750488 150.040802,201.273270 151.229095,200.022049 
	C157.023773,193.920441 167.577423,192.310944 173.921112,196.518036 
	C170.139603,204.783676 163.130920,207.828430 154.277557,208.593140 
z"/>
</svg>